<?xml version="1.0" encoding="UTF-8" standalone="no"?>
<!-- Created with Inkscape (http://www.inkscape.org/) -->

<svg
   width="49.926155mm"
   height="38.028515mm"
   viewBox="0 0 49.926155 38.028515"
   version="1.1"
   id="svg1"
   xml:space="preserve"
   xmlns="http://www.w3.org/2000/svg"
   xmlns:svg="http://www.w3.org/2000/svg"><defs
     id="defs1" /><g
     id="layer1"
     transform="translate(-31.934747,-78.817859)"><path
       style="fill:#003399;stroke-width:0.194356"
       d="m 73.741505,116.41138 c -0.172273,-0.23925 -0.59924,-0.83996 -0.948817,-1.33491 -1.807227,-2.55878 -3.530944,-4.99118 -4.664459,-6.58219 -0.894563,-1.25561 -1.800639,-2.56413 -1.831862,-2.6455 -0.02751,-0.0717 0.253794,-0.0799 2.725977,-0.0799 h 2.756653 v -8.514853 c 0,-6.16172 -0.01561,-8.50965 -0.05648,-8.49603 -0.03106,0.0104 -0.403242,0.56187 -0.827066,1.22559 -0.423823,0.66372 -1.045587,1.6233 -1.381697,2.13239 -0.336112,0.50909 -0.756494,1.15102 -0.934186,1.42652 -1.208875,1.87426 -1.830039,2.79941 -2.025753,3.01709 -0.48225,0.53637 -1.027848,0.75298 -1.795526,0.71282 -0.941272,-0.0492 -1.30126,-0.33994 -2.268249,-1.83173 -0.360311,-0.55586 -0.899517,-1.38557 -1.198234,-1.84379 -0.298718,-0.45823 -0.808525,-1.24501 -1.132906,-1.7484 -0.959687,-1.48928 -2.013445,-3.07398 -2.054199,-3.0892 -0.02086,-0.008 -0.03823,3.12182 -0.0386,6.95471 -5.83e-4,6.784133 -0.0033,6.971753 -0.09878,7.077293 -0.223585,0.24706 -0.266925,0.25215 -2.145063,0.25215 -1.142533,0 -1.825845,-0.0198 -1.929545,-0.056 -0.09276,-0.0323 -0.210006,-0.13548 -0.277647,-0.24426 L 53.49798,102.55489 53.48465,91.713807 c -0.01473,-11.98634 -0.03752,-11.12271 0.310783,-11.77822 0.220524,-0.41502 0.518802,-0.70499 0.936903,-0.91082 0.317706,-0.15641 0.40723,-0.17616 0.877218,-0.19356 0.604737,-0.0224 0.984149,0.0628 1.368422,0.30735 0.443676,0.28232 0.494187,0.35338 2.874462,4.04324 0.693781,1.07549 2.514149,3.8759 2.982935,4.58887 0.25105,0.38182 0.821316,1.25538 1.267258,1.94124 0.445944,0.68585 0.827174,1.24701 0.847175,1.24701 0.02,0 0.115059,-0.13306 0.211234,-0.29568 0.09618,-0.16263 0.451965,-0.72379 0.790644,-1.24702 0.338681,-0.52323 0.750354,-1.1596 0.914832,-1.41414 0.164476,-0.25455 0.44251,-0.68265 0.61785,-0.95133 0.17534,-0.26869 0.503988,-0.77778 0.73033,-1.13132 0.226341,-0.35353 0.677315,-1.04775 1.002164,-1.5427 0.324846,-0.49495 0.694929,-1.06189 0.822405,-1.25987 1.226064,-1.90418 2.104078,-3.23671 2.28713,-3.47108 0.427397,-0.54721 1.036262,-0.82791 1.795826,-0.82791 0.648238,0 1.153138,0.20348 1.58978,0.6407 0.312622,0.31304 0.523704,0.71901 0.593344,1.14117 0.03203,0.19417 0.05012,4.81396 0.04953,12.64752 -5.83e-4,6.787893 -5.83e-4,12.381913 -7e-5,12.431163 7.77e-4,0.0838 0.176932,0.0904 2.753483,0.10284 l 2.752617,0.0133 -0.43194,0.61709 c -0.237568,0.33939 -0.643639,0.9179 -0.902384,1.28558 -0.258744,0.36768 -0.762985,1.08503 -1.120536,1.59412 -0.357553,0.50909 -0.93227,1.31901 -1.277153,1.79982 -0.344882,0.48081 -0.799242,1.12875 -1.009691,1.43986 -0.210447,0.31111 -0.558023,0.80863 -0.772392,1.1056 -0.214369,0.29697 -0.560402,0.78727 -0.768962,1.08957 -0.591925,0.85794 -1.26203,1.80078 -1.398736,1.96801 l -0.124388,0.15217 z m -39.784396,0.27474 c -0.625183,-0.083 -1.223887,-0.45108 -1.577632,-0.96986 -0.316233,-0.46377 -0.427968,-0.81433 -0.425183,-1.334 0.0033,-0.61969 0.162369,-1.01007 0.796129,-1.95409 0.236982,-0.353 3.092414,-4.17475 8.236101,-11.02332 0.602514,-0.80222 1.140359,-1.519573 1.195214,-1.594123 0.05486,-0.0746 0.398898,-0.53601 0.76454,-1.02545 l 0.664805,-0.88989 -0.248028,-0.31856 c -0.247143,-0.31742 -1.393888,-1.84554 -1.898405,-2.52976 -0.804726,-1.09136 -7.624969,-10.22171 -8.355098,-11.18508 -0.91168,-1.20292 -1.129168,-1.61922 -1.169771,-2.23908 -0.06811,-1.03983 0.559085,-1.96082 1.613233,-2.36894 0.240432,-0.0931 0.567885,-0.0972 8.70897,-0.10939 6.779024,-0.0102 8.484677,3.7e-4 8.587702,0.053 l 0.128558,0.0656 v 2.16684 c 0,1.19176 -0.01928,2.18611 -0.04284,2.20966 -0.02356,0.0236 -2.765713,0.0487 -6.093668,0.0559 -3.327955,0.007 -6.081234,0.0244 -6.118398,0.0382 -0.04727,0.0176 -0.0059,0.10639 0.13773,0.2955 0.112915,0.14868 0.723057,0.96454 1.355869,1.81303 2.590981,3.47403 3.45593,4.62939 3.484043,4.65381 0.01629,0.0142 0.34459,0.45381 0.729576,0.97705 0.384986,0.52323 0.970795,1.31001 1.301797,1.74839 0.331004,0.43839 0.813681,1.08357 1.072618,1.43375 0.258937,0.35017 0.685257,0.90555 0.947379,1.23416 0.984915,1.23475 1.145259,1.95694 0.656476,2.95675 -0.156841,0.32083 -0.866388,1.298213 -2.730553,3.761253 -0.586259,0.7746 -2.621666,3.5051 -3.046593,4.08701 -0.17555,0.24041 -0.550039,0.73793 -0.832197,1.10561 -0.282161,0.36767 -0.842536,1.11974 -1.24528,1.67126 -0.402745,0.55151 -0.98454,1.33829 -1.292878,1.74839 -0.308338,0.4101 -0.57172,0.77457 -0.585296,0.80992 -0.01967,0.0512 1.478531,0.0643 7.385786,0.0643 h 7.410466 l 8e-5,-2.0955 c 8.9e-5,-2.34727 0.0027,-2.36565 0.359885,-2.54669 0.164009,-0.0831 0.342794,-0.09 2.014683,-0.0771 1.770667,0.0136 1.839769,0.0178 1.9798,0.12185 0.281463,0.20903 0.281356,0.20741 0.261318,3.9804 -0.02057,3.87375 -0.0073,3.72717 -0.385974,4.26916 -0.361191,0.517 -0.865205,0.79733 -1.658623,0.92251 -0.317855,0.0502 -21.712858,0.0672 -22.086337,0.0176 z"
       id="path1" /></g></svg>
